<svg xmlns="http://www.w3.org/2000/svg" viewBox="0 0 1000 500" fill="none">
  <defs>
    <pattern id="grid" width="10" height="10" patternUnits="userSpaceOnUse">
      <circle cx="5" cy="5" r="1" fill="rgba(124,58,237,0.15)"/>
    </pattern>
  </defs>
  <rect width="1000" height="500" fill="url(#grid)"/>

  <g fill="rgba(124,58,237,0.55)" stroke="rgba(124,58,237,0.7)" stroke-width="0.6">

    <!-- North America -->
    <path d="M120,48 L135,30 L155,18 L180,12 L200,8 L218,10 L232,18 L240,28 L242,42 L238,55 L225,65 L210,72 L198,76 L185,75 L175,68 L165,58 L155,55 L142,62 L132,72 L122,78 L115,72 L110,60 L115,50 Z"/>
    <!-- Central America -->
    <path d="M128,82 L138,78 L148,80 L155,88 L152,98 L145,106 L138,110 L130,105 L126,95 Z"/>
    <!-- South America -->
    <path d="M160,118 L175,110 L190,112 L208,120 L218,135 L222,158 L218,182 L212,208 L208,232 L205,258 L208,282 L202,302 L195,318 L188,322 L175,305 L168,280 L162,255 L158,228 L155,198 L152,165 L150,142 L152,125 Z"/>

    <!-- Europe -->
    <path d="M375,38 L392,30 L415,22 L435,18 L458,22 L475,32 L482,48 L478,62 L465,75 L448,80 L432,78 L420,72 L415,62 L408,58 L402,65 L392,80 L382,98 L372,108 L362,112 L352,105 L345,88 L348,68 L355,50 Z"/>
    <!-- UK/Ireland -->
    <path d="M368,38 L372,32 L376,28 L374,35 L370,42 L366,44 Z M372,48 L378,45 L380,38 L376,44 Z"/>
    <!-- Scandinavia -->
    <path d="M415,15 L425,12 L438,14 L442,22 L436,28 L425,25 L418,20 Z"/>
    <!-- Italy -->
    <path d="M428,72 L432,68 L435,72 L432,82 L428,85 L425,78 Z"/>
    <!-- Greece -->
    <path d="M450,78 L458,75 L462,80 L455,85 L448,82 Z"/>

    <!-- Africa -->
    <path d="M378,118 L402,110 L430,106 L458,108 L480,118 L490,135 L495,158 L498,182 L495,210 L488,238 L478,265 L468,292 L460,315 L448,335 L438,350 L425,358 L412,362 L398,355 L385,340 L378,318 L372,292 L368,265 L362,238 L358,208 L355,178 L355,155 L360,132 Z"/>

    <!-- Asia mainland -->
    <path d="M478,28 L508,20 L545,12 L585,10 L622,12 L658,18 L690,28 L715,42 L730,58 L738,78 L735,100 L722,118 L705,130 L688,138 L668,142 L648,140 L630,135 L618,125 L608,112 L598,100 L588,98 L575,105 L562,118 L548,120 L532,118 L518,110 L505,98 L492,85 L482,65 Z"/>
    <!-- India -->
    <path d="M618,145 L638,142 L655,148 L665,162 L670,180 L665,200 L655,218 L642,228 L630,222 L622,208 L615,188 L612,168 Z"/>
    <!-- Sri Lanka -->
    <path d="M632,235 L638,232 L640,238 L636,244 L630,240 Z"/>

    <!-- SE Asia mainland -->
    <path d="M688,152 L708,148 L722,155 L730,168 L725,182 L712,190 L700,188 L692,178 Z"/>
    <!-- Indonesia / Philippines -->
    <path d="M738,155 L755,152 L768,158 L772,168 L765,178 L752,182 L742,175 Z"/>
    <path d="M758,188 L775,185 L788,192 L792,202 L785,212 L772,215 L762,208 Z"/>
    <path d="M742,195 L752,192 L758,200 L752,208 L742,205 Z"/>
    <path d="M778,198 L795,195 L802,202 L798,212 L785,215 L778,208 Z"/>
    <!-- Japan -->
    <path d="M728,48 L735,42 L742,45 L748,55 L745,65 L738,72 L732,75 L725,68 L722,58 Z"/>
    <!-- Korea -->
    <path d="M715,52 L722,48 L728,52 L725,62 L718,68 L712,62 Z"/>
    <!-- Taiwan -->
    <path d="M738,108 L744,105 L748,110 L744,118 L738,115 Z"/>

    <!-- Middle East -->
    <path d="M485,98 L498,92 L512,95 L520,105 L515,115 L505,118 L492,115 L484,108 Z"/>
    <!-- Arabian Peninsula -->
    <path d="M498,118 L515,112 L528,118 L535,130 L528,142 L518,148 L505,145 L498,138 Z"/>

    <!-- Australia -->
    <path d="M750,292 L780,282 L812,278 L840,282 L862,295 L875,312 L878,332 L872,355 L858,372 L838,378 L818,375 L798,365 L782,350 L768,335 L755,318 L748,305 Z"/>
    <!-- Tasmania -->
    <path d="M855,385 L862,382 L865,388 L860,395 L852,392 Z"/>

    <!-- New Zealand -->
    <path d="M920,388 L928,382 L935,390 L930,402 L922,408 L912,402 Z"/>
    <path d="M935,418 L942,415 L948,422 L945,432 L935,438 L928,430 Z"/>

    <!-- Greenland -->
    <path d="M260,22 L280,14 L302,15 L315,25 L312,38 L298,46 L278,45 L262,38 L255,28 Z"/>

    <!-- Madagascar -->
    <path d="M440,330 L446,325 L448,338 L445,348 L438,342 Z"/>

    <!-- Caribbean -->
    <path d="M202,128 L208,125 L212,130 L208,138 L202,135 Z"/>
    <path d="M218,135 L224,132 L228,138 L222,142 L216,140 Z"/>
  </g>
</svg>
